<svg xmlns="http://www.w3.org/2000/svg" viewBox="0 0 24 24" width="96" height="96" style="fill: rgb(255, 255, 255);">
    <path style="text-indent:0;text-align:start;line-height:normal;text-transform:none;block-progression:tb;-inkscape-font-specification:Sans" d="M 12 3 C 10.645461 3 9.4806977 3.5452665 8.5 4.28125 C 8.0061868 4.1488042 7.5176889 4 7 4 C 5.7030303 4 4.517228 4.3778526 3.59375 5.0625 C 2.670272 5.7471474 2 6.7970588 2 8 C 2 8.2995075 2.0423896 8.5767848 2.125 8.84375 C 2.1275556 8.8532825 2.1223616 8.8654974 2.125 8.875 C 2.356802 9.7098713 2.9011415 10.424015 3.59375 10.9375 C 3.6049908 10.945834 3.6136817 10.960507 3.625 10.96875 L 3 16.90625 L 2.9375 17.40625 L 3.3125 17.75 C 3.3125 17.75 4.0737979 18.39046 5.46875 18.9375 C 6.8637021 19.48454 8.9850575 20 12 20 C 15.014943 20 17.136298 19.48454 18.53125 18.9375 C 19.926202 18.39046 20.6875 17.75 20.6875 17.75 L 21.0625 17.40625 L 21 16.90625 L 20.34375 10.8125 C 21.273837 10.135837 22 9.1980298 22 8 C 22 6.7970588 21.329728 5.7471474 20.40625 5.0625 C 19.482772 4.3778526 18.29697 4 17 4 C 16.482311 4 15.993813 4.1488042 15.5 4.28125 C 14.519302 3.5452665 13.354539 3 12 3 z M 12 5 C 13.04359 5 13.872764 5.3938455 14.625 6.0625 L 15.09375 6.46875 L 15.65625 6.21875 C 16.00684 6.078514 16.511111 6 17 6 C 17.90303 6 18.692228 6.2658974 19.21875 6.65625 C 19.745272 7.0466026 20 7.5029412 20 8 C 20 8.5333333 19.581385 9.1311827 18.84375 9.5 L 18.4375 9.6875 C 18.016064 9.851125 17.513276 10 17 10 C 16.248148 10 15.633459 9.8396551 15.09375 9.53125 L 14.09375 11.28125 C 14.954041 11.772845 15.951852 12 17 12 C 17.493973 12 17.980454 11.949104 18.4375 11.84375 L 18.9375 16.46875 C 18.779286 16.591295 18.673747 16.724756 17.8125 17.0625 C 16.657452 17.51546 14.785057 18 12 18 C 9.2149425 18 7.3425479 17.51546 6.1875 17.0625 C 5.3262529 16.724756 5.2207142 16.591295 5.0625 16.46875 L 5.5625 11.8125 C 6.0236374 11.922229 6.4965134 12 7 12 L 7 10 C 6.5598626 10 6.1500694 9.9224557 5.78125 9.8125 L 5.75 9.8125 L 5.15625 9.5 C 4.6196445 9.2316973 4.2543566 8.8352036 4.09375 8.4375 C 4.084628 8.4149115 4.0702784 8.3976207 4.0625 8.375 C 4.0303923 8.2562201 4 8.1242647 4 8 C 4 7.5029412 4.254728 7.0466026 4.78125 6.65625 C 5.307772 6.2658974 6.0969697 6 7 6 C 7.4888889 6 7.99316 6.078514 8.34375 6.21875 L 8.90625 6.46875 L 9.375 6.0625 C 10.127236 5.3938455 10.95641 5 12 5 z" color="#000" overflow="visible" font-family="Sans"/>
</svg>