<?xml version="1.0" standalone="no"?>
<!DOCTYPE svg PUBLIC "-//W3C//DTD SVG 20010904//EN"
 "http://www.w3.org/TR/2001/REC-SVG-20010904/DTD/svg10.dtd">
<svg version="1.0" xmlns="http://www.w3.org/2000/svg"
 width="256.000000pt" height="256.000000pt" viewBox="0 0 256.000000 256.000000"
 preserveAspectRatio="xMidYMid meet">
<metadata>
Created by potrace 1.11, written by Peter Selinger 2001-2013
</metadata>
<g transform="translate(0.000000,256.000000) scale(0.100000,-0.100000)"
fill="#000000" stroke="none">
<path d="M1150 2355 c-94 -19 -205 -68 -278 -123 l-34 -24 -81 17 c-77 17
-211 17 -286 1 -218 -48 -401 -202 -455 -383 -18 -64 -15 -177 8 -250 20 -62
72 -141 136 -202 35 -34 47 -53 45 -71 -2 -14 -6 -55 -9 -92 -4 -37 -9 -75
-11 -86 -2 -10 -6 -53 -9 -94 -4 -42 -9 -91 -11 -110 -2 -18 -7 -60 -10 -93
-3 -33 -8 -76 -10 -95 -3 -19 -7 -60 -10 -90 -3 -30 -8 -73 -11 -94 -6 -36 -3
-42 32 -73 45 -40 153 -105 227 -138 155 -68 303 -106 537 -139 206 -30 603
-25 790 9 19 4 50 8 69 11 18 2 70 13 115 25 211 53 381 129 504 227 41 32 42
35 37 78 -5 45 -9 82 -20 189 -3 33 -8 74 -10 90 -2 17 -6 57 -10 90 -3 33 -8
74 -10 90 -2 17 -7 64 -11 105 -3 41 -8 83 -9 92 -2 9 -7 46 -10 82 -7 65 -7
66 25 92 130 110 182 217 176 363 -2 42 -8 86 -13 97 -5 10 -23 45 -39 78 -56
114 -190 219 -346 271 -104 35 -265 43 -370 19 -67 -16 -67 -16 -100 9 -143
109 -362 158 -538 122z m278 -266 c66 -22 154 -76 211 -130 32 -30 35 -32 65
-20 193 78 410 52 531 -66 104 -101 86 -224 -46 -312 -138 -92 -320 -110 -472
-46 -37 15 -39 15 -57 -7 -11 -13 -19 -26 -20 -31 0 -4 -21 -43 -46 -87 -26
-44 -45 -82 -43 -83 22 -17 144 -59 205 -72 79 -16 229 -19 303 -5 47 8 47 8
56 -90 7 -68 7 -76 25 -235 6 -55 13 -122 16 -150 3 -27 7 -62 10 -77 3 -21
-3 -32 -28 -51 -63 -47 -293 -123 -433 -142 -22 -4 -47 -8 -55 -10 -47 -12
-202 -20 -395 -19 -318 0 -506 32 -730 121 -121 48 -136 59 -130 92 2 14 7 58
11 96 3 39 8 81 9 95 2 14 6 54 10 90 3 36 8 79 10 95 6 45 18 168 18 183 0
10 9 12 31 7 17 -3 59 -9 94 -12 l63 -6 -3 129 -3 128 -25 2 c-137 8 -287 91
-336 186 -9 17 -16 48 -16 69 3 190 302 312 555 224 l76 -26 36 33 c151 139
331 184 503 127z"/>
</g>
</svg>
